<?xml version="1.0" standalone="no"?>
<!DOCTYPE svg PUBLIC "-//W3C//DTD SVG 20010904//EN"
 "http://www.w3.org/TR/2001/REC-SVG-20010904/DTD/svg10.dtd">
<svg version="1.0" xmlns="http://www.w3.org/2000/svg"
 width="840.000000pt" height="440.000000pt" viewBox="0 0 840.000000 440.000000"
 preserveAspectRatio="xMidYMid meet">

<g transform="translate(0.000000,440.000000) scale(0.100000,-0.100000)"
fill="#000000" stroke="none">
<path d="M5944 4101 c-55 -34 -74 -67 -74 -133 0 -56 25 -127 49 -143 6 -3 0
-27 -13 -58 -13 -28 -35 -87 -51 -130 -21 -59 -32 -76 -44 -73 -50 15 -214 25
-261 16 -67 -13 -378 -116 -407 -136 -15 -9 -23 -24 -23 -42 0 -15 -7 -61 -15
-102 -8 -41 -26 -183 -39 -315 -14 -132 -32 -275 -40 -319 -16 -83 -15 -96 12
-96 23 0 225 -51 235 -60 9 -7 -158 -60 -190 -60 -30 0 -38 -16 -51 -100 -18
-105 -69 -191 -138 -230 -47 -26 -84 -74 -84 -108 0 -6 -17 -20 -37 -33 -51
-30 -93 -70 -93 -87 0 -9 12 -4 33 15 36 32 94 59 104 50 7 -8 -34 -77 -136
-229 -74 -109 -77 -113 -125 -125 -68 -16 -127 -60 -151 -110 -25 -53 -34 -53
-160 -9 l-97 34 -66 -22 c-37 -11 -71 -25 -75 -31 -9 -10 0 -553 12 -745 6
-102 7 -105 31 -108 14 -2 57 -14 95 -27 39 -13 96 -31 127 -40 31 -8 60 -20
63 -25 3 -6 13 -10 22 -10 18 0 144 86 156 107 5 8 61 48 125 90 65 41 151
102 194 134 l76 58 6 -47 c3 -26 13 -132 22 -237 9 -104 18 -191 19 -193 2 -2
47 -14 101 -27 120 -30 254 -75 254 -87 0 -28 131 26 150 62 6 12 70 78 141
148 72 70 151 154 176 187 36 48 61 68 122 100 137 72 299 169 309 186 6 9 22
106 37 215 14 110 28 206 31 214 7 20 29 -22 89 -175 26 -66 58 -132 72 -146
21 -23 22 -29 13 -55 -21 -54 -16 -146 11 -194 36 -64 112 -104 198 -104 78 0
112 16 165 74 73 81 82 140 37 236 -32 68 -88 121 -138 130 -32 6 -33 8 -33
54 0 47 -52 214 -120 385 -18 44 -49 127 -70 185 -21 58 -54 142 -73 188 l-35
82 9 108 c5 59 13 125 17 147 4 22 6 47 4 56 -5 24 -48 40 -124 46 -37 3 -68
9 -68 12 0 3 21 16 48 28 110 52 105 44 145 214 42 179 114 538 123 621 9 78
1 104 -38 118 -33 11 -141 32 -373 71 -105 17 -235 46 -243 53 -4 4 35 112 64
176 25 56 29 60 61 60 92 0 173 101 158 197 -15 105 -143 168 -231 114z m-217
-582 l83 -24 -3 -50 c-2 -39 1 -50 15 -53 12 -2 20 8 29 38 7 23 18 44 25 47
7 3 55 -4 106 -16 51 -11 136 -27 188 -35 169 -28 300 -52 305 -58 3 -3 -26
-29 -65 -58 -61 -46 -84 -70 -64 -70 3 0 35 20 71 45 36 26 68 44 70 41 7 -7
-79 -452 -119 -624 l-32 -133 -51 -22 c-27 -12 -92 -43 -143 -70 -52 -27 -95
-47 -96 -45 -4 4 20 163 38 256 17 82 56 342 56 370 0 12 -3 13 -11 5 -6 -6
-22 -82 -35 -170 -19 -129 -74 -452 -79 -460 -2 -4 -305 57 -485 97 -96 22
-236 47 -310 56 -74 10 -138 20 -142 23 -3 3 0 38 7 76 7 39 18 124 24 190 7
66 21 202 33 303 21 176 22 183 42 177 53 -15 76 -17 76 -7 0 6 -16 16 -35 22
-64 21 -55 26 155 94 80 25 161 55 180 66 40 23 53 22 167 -11z m-275 -1087
c-2 -24 2 -49 8 -57 24 -29 390 -122 425 -109 22 9 35 37 35 74 0 28 2 31 23
24 12 -3 30 -13 39 -21 15 -13 24 -11 83 22 59 34 72 37 113 31 67 -9 160 -30
167 -37 3 -4 -35 -33 -85 -65 -49 -32 -90 -62 -90 -66 0 -10 60 20 127 62 26
17 50 27 54 23 8 -9 -3 -149 -13 -158 -3 -4 -25 3 -48 15 -29 15 -51 19 -72
15 -38 -9 -94 -58 -118 -104 l-19 -36 -2 55 c-2 40 -3 46 -6 20 -9 -79 -74
-591 -84 -662 -8 -53 -16 -78 -25 -78 -19 0 -34 33 -34 77 0 48 -31 115 -66
148 l-28 26 28 135 c14 74 24 138 22 143 -3 4 -31 11 -63 15 -32 4 -98 18
-148 31 -49 13 -116 27 -148 31 -31 3 -59 9 -61 13 -9 14 32 88 59 105 36 24
96 31 124 16 21 -11 22 -13 6 -30 -22 -24 -16 -74 8 -78 23 -5 57 25 57 49 0
10 3 20 8 22 11 8 82 -19 115 -43 43 -32 43 -18 1 20 -39 34 -91 60 -120 60
-9 0 -27 9 -41 20 -31 24 -101 27 -142 6 -39 -21 -88 -79 -96 -115 -8 -38 -18
-39 -148 -7 -70 17 -106 31 -125 49 -15 14 -48 35 -74 47 -27 11 -48 24 -48
28 0 4 10 56 22 115 14 72 26 111 36 115 8 3 56 -4 106 -16 50 -12 179 -40
286 -62 107 -22 271 -59 363 -81 163 -39 216 -45 169 -20 -29 15 -455 114
-588 136 -148 25 -277 56 -267 65 4 5 47 20 95 33 48 14 95 30 105 36 10 6 32
10 48 8 29 -2 30 -4 27 -45z m263 -15 c144 -33 163 -42 152 -71 -5 -11 -22
-10 -99 5 -51 11 -130 31 -175 45 -70 21 -83 28 -83 46 0 17 4 20 28 15 15 -4
94 -22 177 -40z m569 -308 c29 -23 69 -80 80 -116 6 -19 -1 -25 -56 -50 -35
-15 -82 -43 -106 -60 -23 -18 -44 -33 -46 -33 -10 0 -26 68 -26 109 0 47 28
121 57 153 22 24 64 23 97 -3z m-1176 -19 c23 -10 45 -26 48 -34 3 -9 -6 -60
-20 -113 -14 -54 -39 -188 -57 -298 -17 -110 -32 -203 -35 -206 -9 -15 9 -39
29 -38 12 1 63 -11 112 -25 103 -29 478 -98 545 -100 l45 -1 8 45 c4 25 16 95
25 155 13 82 21 110 32 110 23 0 60 -83 60 -135 0 -43 -2 -47 -35 -59 -38 -13
-56 -51 -38 -80 17 -27 42 -24 74 8 25 25 34 29 50 21 23 -13 22 -4 4 -126
-15 -100 -20 -192 -9 -182 3 3 12 50 19 104 22 152 25 165 36 159 16 -11 50
-85 58 -128 6 -33 10 -38 16 -24 11 27 -21 145 -51 184 l-26 35 26 196 c14
108 29 230 32 270 4 39 11 72 15 72 5 0 9 -5 9 -12 0 -16 59 -144 87 -191 13
-20 33 -60 44 -89 18 -47 19 -60 10 -147 -12 -110 -58 -432 -63 -436 -8 -6
-179 -105 -207 -119 l-30 -16 6 52 c8 68 -10 57 -26 -17 -7 -30 -15 -55 -19
-55 -4 0 -7 29 -7 64 0 70 -15 100 -69 140 -21 16 -42 21 -94 21 -76 0 -117
-19 -229 -107 -74 -57 -71 -63 -75 114 -2 89 -7 121 -18 131 -12 11 -284 90
-340 99 -8 1 -39 -4 -68 -11 -29 -7 -56 -11 -59 -7 -8 7 25 264 36 285 5 9 17
77 26 151 36 301 47 360 68 360 7 0 31 -9 55 -20z m-219 -35 c-20 -33 -39 -46
-39 -26 0 12 40 61 50 61 5 0 0 -16 -11 -35z m78 -30 c-8 -44 -13 -53 -24 -44
-7 6 -13 16 -13 22 0 9 39 77 44 77 1 0 -2 -25 -7 -55z m714 22 c-8 -8 -11 -7
-11 4 0 20 13 34 18 19 3 -7 -1 -17 -7 -23z m-770 -110 c-13 -13 -26 -3 -16
12 3 6 11 8 17 5 6 -4 6 -10 -1 -17z m1517 -104 c32 -81 39 -109 29 -115 -17
-11 -198 -71 -200 -67 -1 2 -21 43 -44 91 l-43 88 43 31 c46 35 133 78 158 78
11 1 28 -30 57 -106z m-1485 19 c-3 -29 -10 -52 -14 -52 -5 0 -24 14 -44 31
-46 41 -43 65 7 61 20 -2 39 2 43 8 12 20 15 5 8 -48z m743 32 c51 -13 63 -20
68 -40 4 -14 18 -30 32 -36 19 -9 24 -18 22 -37 -2 -15 -8 -25 -16 -23 -8 1
-29 -7 -47 -18 -40 -25 -53 -13 -35 31 12 28 11 32 -20 64 -21 21 -44 35 -64
37 -24 2 -32 8 -34 27 -3 19 0 23 14 17 9 -4 45 -14 80 -22z m142 -41 c5 -18
-10 -16 -34 2 -18 15 -18 15 5 13 14 -2 26 -9 29 -15z m-903 -137 c-4 -33 -15
-77 -26 -98 -17 -33 -24 -38 -42 -32 -60 18 -137 69 -137 90 0 8 25 53 55 100
l55 85 50 -43 50 -43 -5 -59z m449 49 c6 -22 12 -25 48 -25 26 0 45 6 52 16
11 14 18 14 55 3 40 -12 42 -15 37 -41 -4 -22 3 -39 34 -81 22 -28 48 -52 57
-52 27 0 30 -51 5 -64 -22 -12 -58 -111 -49 -136 4 -8 3 -15 -1 -15 -27 0
-189 33 -196 40 -4 4 8 16 29 26 72 34 82 89 25 145 -21 21 -38 29 -64 29 -20
0 -36 4 -36 9 0 5 -12 23 -26 40 -25 30 -26 30 -56 15 -38 -20 -46 -12 -19 22
16 21 18 30 10 46 -13 23 -4 35 31 41 51 9 58 7 64 -18z m-161 -10 c42 -29 45
-40 17 -55 -25 -14 -26 -42 -1 -64 18 -16 22 -16 49 -2 35 18 42 13 67 -47
l15 -37 -36 -15 c-35 -14 -35 -15 -28 -61 6 -44 6 -46 -17 -42 -21 3 -25 10
-30 54 -8 61 -29 96 -76 125 l-35 22 6 65 c10 94 12 95 69 57z m1296 -126 c17
-44 31 -84 31 -88 0 -10 -127 -69 -166 -77 -30 -6 -31 -4 -67 75 -20 44 -37
84 -37 89 0 5 28 17 63 26 34 10 78 26 97 36 19 11 38 19 42 20 3 0 20 -36 37
-81z m-1773 -9 c19 -16 52 -35 75 -41 23 -7 43 -18 46 -25 5 -14 -41 -92 -65
-111 -9 -7 -31 -13 -50 -13 -47 0 -102 54 -102 101 0 29 43 119 57 119 3 0 21
-13 39 -30z m432 -36 c29 -20 52 -66 52 -104 0 -42 -17 -38 -30 8 -5 21 -21
49 -35 62 -24 23 -33 50 -17 50 4 0 18 -7 30 -16z m-580 -66 c5 -68 55 -131
127 -158 32 -12 26 -24 -25 -50 -109 -56 -250 2 -250 102 0 54 23 92 72 122
61 37 72 34 76 -16z m1996 -89 c29 -80 29 -82 10 -97 -28 -21 -137 -72 -154
-72 -9 0 -27 30 -47 83 -18 45 -33 86 -33 90 0 4 10 7 23 7 12 1 54 16 92 35
39 18 72 34 75 34 3 1 18 -36 34 -80z m-2301 14 c51 -16 82 -31 91 -46 10 -16
17 -87 25 -253 6 -135 19 -279 31 -348 11 -65 20 -125 20 -134 0 -21 -67 -65
-86 -58 -10 4 -14 26 -14 83 0 147 -33 601 -46 646 -3 9 -10 17 -16 17 -7 0
-9 -19 -4 -56 6 -56 30 -387 40 -571 3 -57 3 -103 -1 -103 -5 0 -60 12 -124
27 l-117 27 -6 95 c-4 53 -11 195 -16 316 -5 121 -13 250 -16 288 -8 80 -11
79 104 37 90 -33 116 -37 110 -18 -4 10 -111 51 -148 58 -3 0 6 7 20 15 27 15
39 14 153 -22z m576 -93 c-11 -66 -15 -73 -43 -85 -125 -54 -200 -93 -268
-141 -44 -31 -81 -54 -82 -52 -2 2 -6 44 -9 95 l-6 91 47 -20 c59 -27 144 -28
192 -3 60 30 97 62 110 97 15 37 60 102 66 95 3 -2 -1 -37 -7 -77z m1776 -69
c13 -60 -53 -131 -123 -131 -26 0 -36 6 -52 33 -27 44 -25 54 13 61 18 3 58
21 88 39 30 19 57 32 61 30 3 -2 9 -16 13 -32z m-1423 -48 l138 -37 0 -70 c0
-75 33 -437 54 -601 13 -100 13 -100 -10 -124 -13 -14 -26 -22 -29 -19 -3 3
-14 109 -25 236 -32 375 -45 478 -62 488 -6 4 -8 -14 -4 -47 3 -30 13 -142 21
-249 8 -107 20 -242 25 -299 6 -57 8 -106 6 -108 -2 -3 -55 12 -118 31 -62 20
-132 40 -156 46 -24 6 -45 16 -46 23 -2 7 -11 104 -21 217 -9 113 -25 269 -35
346 -16 114 -17 147 -7 168 14 32 17 31 166 -25 58 -21 112 -39 120 -39 32 0
-24 39 -99 69 -41 16 -71 30 -66 30 5 1 71 -16 148 -36z m-314 -147 c8 -118 7
-123 -47 -151 l-28 -14 -17 62 c-14 48 -27 71 -65 109 -56 56 -59 52 60 92 41
14 77 22 81 18 4 -4 11 -57 16 -116z m1847 30 c73 -48 101 -135 66 -203 -29
-57 -74 -83 -145 -83 -110 0 -165 43 -173 137 -6 67 8 113 34 113 10 0 41 14
68 30 55 33 105 35 150 6z m-2043 -21 c37 -25 82 -102 94 -161 6 -30 3 -34
-76 -88 -45 -31 -83 -56 -86 -56 -2 0 -4 11 -4 24 0 63 -55 159 -105 183 -19
9 -35 20 -35 24 0 7 158 98 170 99 3 0 22 -11 42 -25z m1086 -77 c8 -7 21 -27
29 -45 11 -29 11 -38 -7 -85 -25 -65 -97 -168 -104 -147 -2 8 -10 38 -16 66
-14 60 -58 127 -101 151 -16 10 -29 20 -29 24 0 5 57 35 100 52 24 9 110 -2
128 -16z m-1248 -66 c40 -40 77 -135 66 -169 -6 -19 -93 -79 -102 -70 -6 5
-30 154 -37 230 -4 42 -2 47 15 47 11 0 37 -17 58 -38z m1050 -28 c37 -31 62
-78 85 -158 l17 -58 -58 -59 c-32 -32 -59 -57 -61 -55 -2 2 -10 29 -18 60 -21
79 -49 130 -90 163 -19 15 -35 34 -35 42 0 21 82 91 107 91 12 0 36 -12 53
-26z m-115 -149 c31 -39 78 -179 70 -204 -3 -9 -23 -35 -45 -56 -33 -32 -40
-36 -40 -20 0 11 -7 81 -15 155 -8 74 -15 141 -15 148 0 22 18 13 45 -23z"/>
<path d="M5350 3311 c0 -4 33 -18 73 -30 72 -21 126 -33 306 -66 51 -10 166
-37 254 -61 88 -24 162 -42 165 -40 9 10 -9 24 -35 28 -16 3 -84 22 -153 42
-69 20 -174 46 -235 58 -60 11 -165 33 -233 49 -136 32 -142 33 -142 20z"/>
<path d="M5306 3221 c-3 -5 5 -30 19 -55 14 -26 25 -51 25 -57 0 -5 -16 -19
-35 -30 -19 -12 -32 -25 -29 -30 7 -13 48 -11 79 3 23 10 29 8 65 -27 25 -24
44 -36 54 -32 22 9 20 40 -4 62 -29 27 -25 42 19 65 46 23 53 32 45 54 -9 23
-34 20 -90 -10 l-48 -26 -29 36 c-33 41 -63 61 -71 47z"/>
<path d="M6202 3178 c-19 -19 -14 -30 8 -18 11 6 20 15 20 20 0 14 -14 12 -28
-2z"/>
<path d="M5757 3104 c-12 -13 -7 -35 14 -66 l21 -29 -21 -23 c-11 -12 -21 -28
-21 -34 0 -13 35 -15 65 -3 15 6 28 1 53 -20 18 -16 39 -29 48 -29 26 0 28 30
4 62 l-22 31 31 24 c61 48 26 81 -45 42 l-44 -23 -38 37 c-21 21 -41 34 -45
31z"/>
<path d="M6274 3023 c-27 -5 -52 -59 -60 -126 -15 -123 72 -190 123 -95 25 48
24 159 -3 195 -22 29 -29 32 -60 26z m36 -228 c-7 -8 -17 -15 -23 -15 -6 0 -2
7 9 15 25 19 30 19 14 0z"/>
<path d="M5279 2780 c-9 -29 -10 -47 -3 -58 13 -21 442 -133 494 -129 32 2 35
5 48 51 9 30 10 52 4 58 -10 10 -207 57 -371 88 -59 11 -118 23 -133 26 -24 5
-28 2 -39 -36z m320 -46 c107 -24 196 -46 199 -48 10 -10 -10 -78 -21 -73 -7
2 -115 28 -242 57 -126 29 -234 56 -238 60 -4 4 -5 19 -1 34 6 27 8 27 58 21
28 -4 138 -27 245 -51z"/>
<path d="M5200 2285 c-69 -74 33 -192 107 -123 21 19 24 29 20 63 -6 45 -44
85 -81 85 -12 0 -33 -11 -46 -25z"/>
<path d="M5422 2248 c-31 -31 6 -106 46 -94 27 9 36 39 21 68 -20 38 -45 48
-67 26z"/>
<path d="M6343 3764 c-3 -9 -1 -26 6 -37 17 -26 4 -37 -47 -39 -24 -1 -45 -5
-47 -9 -8 -12 19 -26 54 -27 18 0 39 -6 45 -13 8 -9 8 -10 -1 -5 -9 5 -13 0
-13 -14 0 -14 4 -19 13 -14 8 5 7 2 -2 -9 -15 -19 -9 -33 9 -22 6 4 10 24 9
46 -2 21 1 42 6 46 4 4 5 2 1 -5 -6 -10 2 -13 36 -10 58 4 60 30 3 36 -22 2
-41 5 -43 6 -1 2 -3 20 -4 40 -1 41 -15 57 -25 30z m-33 -88 c0 -2 -7 -7 -16
-10 -8 -3 -12 -2 -9 4 6 10 25 14 25 6z m135 -6 c-3 -5 -12 -10 -18 -10 -7 0
-6 4 3 10 19 12 23 12 15 0z"/>
<path d="M5155 3720 c-7 -12 4 -16 43 -18 24 -2 33 1 30 10 -5 15 -65 21 -73
8z"/>
<path d="M5285 3720 c-4 -6 0 -13 8 -16 26 -10 432 0 427 11 -7 13 -427 18
-435 5z"/>
<path d="M4980 3660 c0 -6 -4 -9 -8 -6 -5 3 -21 -7 -36 -23 -24 -25 -25 -31
-15 -59 6 -18 15 -29 20 -26 5 3 9 1 9 -5 0 -15 39 -24 54 -12 7 6 15 8 19 5
3 -3 13 9 22 26 13 25 15 38 6 56 -11 25 -71 62 -71 44z m22 -30 c10 -8 18
-22 18 -32 0 -12 5 -15 18 -11 16 7 16 6 -1 -11 -9 -10 -14 -22 -11 -28 4 -7
2 -8 -5 -4 -6 4 -9 12 -6 17 4 5 -3 5 -17 0 -13 -5 -21 -15 -20 -23 2 -7 0 -9
-5 -5 -4 5 -8 14 -8 20 0 7 -9 11 -20 9 -15 -2 -17 -1 -6 7 8 5 12 19 9 34 -3
16 -1 25 6 24 6 -1 10 4 9 11 -4 15 15 12 39 -8z"/>
<path d="M6793 2991 c10 -12 9 -13 -9 -3 -18 9 -24 9 -34 -3 -19 -22 -21 -65
-4 -72 8 -3 14 -9 14 -15 0 -5 -5 -6 -12 -2 -7 4 -8 3 -4 -5 4 -6 12 -9 17 -6
5 4 9 1 9 -5 0 -6 5 -8 10 -5 6 3 10 1 10 -5 0 -7 6 -8 19 -1 10 6 21 8 23 5
9 -9 37 43 36 67 -2 28 -17 51 -28 44 -4 -3 -10 2 -13 9 -3 8 -15 14 -26 13
-16 -1 -18 -4 -8 -16z m-7 -21 c5 1 15 7 23 13 12 10 13 9 7 -1 -6 -10 -3 -13
12 -10 12 2 20 -1 19 -7 -1 -5 -5 -9 -9 -8 -4 2 -5 -4 -2 -12 4 -8 11 -12 18
-8 6 3 1 -4 -12 -16 -13 -13 -34 -24 -48 -26 -14 -1 -23 0 -20 2 8 8 -18 31
-29 25 -5 -3 -2 4 8 15 22 25 22 40 0 22 -15 -13 -15 -12 -2 8 8 13 16 18 20
12 3 -6 10 -10 15 -9z"/>
<path d="M4466 2902 c-3 -4 -4 -23 -4 -40 1 -39 1 -39 -42 -44 -53 -5 -52 -23
1 -26 44 -3 45 -4 41 -32 -2 -17 -1 -38 2 -47 11 -27 24 1 22 45 l-2 37 43 0
c44 0 62 19 19 21 -46 2 -56 11 -56 54 0 37 -11 52 -24 32z"/>
<path d="M6644 2379 c-4 -7 -3 -14 4 -17 7 -2 9 -9 5 -15 -4 -7 0 -8 13 -3 10
4 15 4 11 0 -4 -4 -2 -13 5 -21 9 -11 5 -20 -15 -41 -28 -29 -35 -52 -16 -52
16 0 41 29 34 40 -3 5 0 7 8 4 8 -3 18 -1 22 5 3 6 11 11 16 11 6 0 7 -5 3
-12 -4 -7 -3 -8 4 -4 7 4 12 1 12 -7 0 -19 26 -40 40 -32 6 4 -2 18 -20 37
-22 22 -28 34 -20 43 5 6 7 15 3 18 -3 4 1 7 10 7 21 0 42 36 27 45 -6 4 -23
-7 -38 -23 -25 -27 -70 -53 -58 -33 3 5 -5 21 -18 36 -18 20 -25 24 -32 14z"/>
<path d="M4477 2184 c-16 -16 -5 -25 26 -22 17 2 31 8 30 13 -3 12 -46 19 -56
9z"/>
<path d="M4607 2184 c-8 -8 1 -24 14 -24 6 0 7 6 3 13 -6 10 -4 10 7 0 8 -8
43 -13 92 -13 58 0 78 3 75 13 -5 13 -178 23 -191 11z"/>
<path d="M4170 2070 c-8 -5 -17 -7 -21 -4 -12 7 -29 -22 -33 -55 -2 -22 0 -31
9 -28 6 3 12 -1 12 -9 0 -7 -5 -10 -11 -7 -6 4 -5 -1 3 -11 8 -10 23 -15 33
-13 10 3 16 1 12 -4 -3 -5 2 -9 11 -9 8 0 18 7 22 16 3 8 12 13 20 10 8 -3 11
-1 8 4 -3 6 -1 10 5 10 16 0 8 68 -10 84 -22 19 -45 25 -60 16z m17 -30 c13 0
23 -6 23 -12 0 -9 4 -8 10 2 7 11 8 5 4 -20 -8 -42 -4 -37 -34 -42 -17 -2 -27
3 -35 19 -7 13 -16 20 -21 15 -5 -4 -1 2 8 14 12 14 15 24 8 32 -7 9 -7 9 2 2
7 -5 22 -10 35 -10z"/>
<path d="M3806 1633 c-11 -11 -6 -24 7 -17 7 5 6 0 -3 -11 -11 -14 -12 -19 -3
-22 10 -4 9 -8 -2 -20 -8 -8 -12 -20 -9 -26 5 -8 2 -8 -7 1 -13 12 -48 18 -36
5 4 -3 1 -13 -5 -21 -10 -12 -7 -13 17 -10 31 3 31 3 34 -53 1 -15 7 -26 16
-26 10 0 14 10 13 33 -1 19 -5 31 -11 27 -6 -3 -7 -1 -3 5 4 7 16 12 27 12 10
0 19 6 19 13 0 8 3 8 8 2 4 -6 13 -10 20 -9 6 1 17 2 23 3 27 3 -16 31 -47 31
-33 0 -34 1 -34 39 0 38 -10 57 -24 44z m44 -99 c0 -8 -19 -13 -24 -6 -3 5 1
9 9 9 8 0 15 -2 15 -3z"/>
<path d="M6746 1618 c5 -8 2 -9 -9 -5 -11 4 -23 -3 -37 -20 -25 -32 -25 -46
-2 -69 9 -10 16 -20 15 -23 -2 -3 1 -6 6 -6 5 0 13 -3 17 -7 15 -16 26 -8 13
9 -13 15 -12 15 9 4 24 -13 37 -6 59 33 15 27 -3 63 -38 82 -34 17 -42 18 -33
2z m39 -64 c0 -25 -4 -29 -32 -32 -30 -3 -33 -1 -33 25 0 37 16 54 44 44 15
-6 21 -17 21 -37z"/>
<path d="M3714 1539 c-11 -18 11 -32 25 -16 9 12 8 16 -3 20 -9 4 -18 1 -22
-4z"/>
<path d="M6106 663 c-7 -8 3 -23 15 -23 6 0 7 6 3 13 -6 9 -4 9 8 -1 19 -15
173 -13 173 3 0 11 -188 18 -199 8z"/>
<path d="M6364 659 c-6 -10 6 -15 36 -14 14 0 25 5 25 10 0 11 -54 14 -61 4z"/>
</g>
</svg>
