<?xml version="1.0" encoding="UTF-8"?>
<svg xmlns="http://www.w3.org/2000/svg" xmlns:xlink="http://www.w3.org/1999/xlink" width="300px" height="66px" viewBox="0 0 402 88" version="1.1">
<g id="surface1">
<path style=" stroke:none;fill-rule:nonzero;fill:rgb(0%,29.411765%,52.156863%);fill-opacity:1;" d="M 266.851562 61.863281 L 275.988281 27.738281 L 303.847656 27.738281 L 301.65625 35.914062 L 284.746094 35.914062 L 283.34375 41.144531 L 297.117188 41.144531 L 295.523438 47.085938 L 281.757812 47.085938 L 280.023438 53.558594 L 296.988281 53.558594 L 294.765625 61.863281 Z M 266.851562 61.863281 "/>
<path style=" stroke:none;fill-rule:nonzero;fill:rgb(0%,29.411765%,52.156863%);fill-opacity:1;" d="M 250.246094 41.359375 L 254.765625 41.359375 C 256.273438 41.359375 257.414062 41.140625 258.148438 40.6875 C 258.929688 40.15625 259.472656 39.34375 259.65625 38.417969 C 259.957031 37.292969 259.832031 36.523438 259.285156 36.101562 C 258.738281 35.675781 257.273438 35.480469 254.832031 35.480469 L 251.816406 35.480469 Z M 246.894531 53.886719 L 251.964844 53.886719 C 253.636719 53.886719 254.90625 53.644531 255.746094 53.140625 C 256.621094 52.597656 257.242188 51.722656 257.460938 50.714844 C 257.761719 49.589844 257.617188 48.789062 257.019531 48.316406 C 256.421875 47.84375 255.273438 47.589844 253.5625 47.589844 L 248.582031 47.589844 Z M 234.164062 61.851562 L 243.300781 27.726562 L 257.28125 27.726562 C 259.460938 27.695312 261.640625 27.773438 263.8125 27.957031 C 264.953125 28.070312 266.074219 28.324219 267.148438 28.722656 C 268.574219 29.246094 269.71875 30.339844 270.304688 31.742188 C 270.859375 33.113281 270.871094 34.78125 270.335938 36.742188 C 269.957031 38.230469 269.238281 39.605469 268.234375 40.765625 C 267.164062 41.976562 265.847656 42.949219 264.375 43.613281 C 266.011719 44.261719 267.082031 45.226562 267.601562 46.523438 C 268.117188 47.820312 268.105469 49.5 267.546875 51.554688 C 267.054688 53.488281 266.140625 55.289062 264.867188 56.828125 C 263.628906 58.316406 262.058594 59.496094 260.28125 60.261719 C 259 60.835938 257.648438 61.234375 256.261719 61.445312 C 253.941406 61.722656 251.609375 61.839844 249.273438 61.796875 Z M 234.164062 61.851562 "/>
<path style=" stroke:none;fill-rule:nonzero;fill:rgb(0%,29.411765%,52.156863%);fill-opacity:1;" d="M 222.46875 61.863281 L 230.738281 61.863281 L 239.851562 27.738281 L 228.671875 27.738281 L 220.359375 58.964844 Z M 222.46875 61.863281 "/>
<path style=" stroke:none;fill-rule:nonzero;fill:rgb(0%,29.411765%,52.156863%);fill-opacity:1;" d="M 201.222656 42.238281 L 206.195312 42.238281 C 207.945312 42.238281 209.210938 42.003906 210 41.535156 C 210.855469 40.96875 211.453125 40.082031 211.652344 39.070312 C 211.972656 37.859375 211.867188 37.023438 211.332031 36.558594 C 210.792969 36.089844 209.5625 35.855469 207.632812 35.855469 L 202.929688 35.855469 Z M 185.140625 61.851562 L 194.332031 27.5625 L 210.648438 27.5625 C 215.757812 27.5625 219.191406 28.332031 220.972656 29.855469 C 222.757812 31.378906 223.160156 33.878906 222.230469 37.398438 C 221.753906 39.324219 220.816406 41.105469 219.496094 42.585938 C 218.097656 44.050781 216.378906 45.171875 214.472656 45.855469 C 216.261719 46.257812 217.433594 47.050781 217.988281 48.234375 C 218.539062 49.410156 218.621094 51.140625 217.988281 53.429688 L 216.480469 58.914062 L 218.667969 61.867188 L 205.269531 61.867188 L 207.1875 54.726562 C 207.65625 52.972656 207.644531 51.707031 207.140625 51.003906 C 206.636719 50.300781 205.527344 49.929688 203.808594 49.929688 L 199.160156 49.929688 L 195.976562 61.851562 Z M 185.140625 61.851562 "/>
<path style=" stroke:none;fill-rule:nonzero;fill:rgb(0%,29.411765%,52.156863%);fill-opacity:1;" d="M 165.273438 50.179688 L 172.140625 50.179688 L 171.910156 38.371094 Z M 148.066406 61.851562 L 169.203125 27.726562 L 180.285156 27.726562 L 183.136719 61.851562 L 172.28125 61.851562 L 172.222656 57.324219 L 161.359375 57.324219 L 158.84375 61.851562 Z M 148.066406 61.851562 "/>
<path style=" stroke:none;fill-rule:nonzero;fill:rgb(0%,29.411765%,52.156863%);fill-opacity:1;" d="M 142.207031 48.625 L 152.578125 48.625 C 151.066406 53.113281 148.554688 56.601562 145.042969 59.089844 C 141.527344 61.578125 137.339844 62.816406 132.480469 62.800781 C 127.015625 62.800781 123.144531 61.199219 120.871094 58 C 118.589844 54.792969 118.207031 50.410156 119.699219 44.820312 C 121.191406 39.226562 123.859375 34.882812 127.824219 31.679688 C 131.769531 28.46875 136.722656 26.757812 141.804688 26.851562 C 146.742188 26.851562 150.308594 28.046875 152.503906 30.433594 C 154.699219 32.820312 155.367188 36.226562 154.515625 40.65625 L 144.035156 40.65625 C 144.34375 38.910156 144.136719 37.59375 143.402344 36.703125 C 142.667969 35.8125 141.421875 35.375 139.660156 35.375 C 137.589844 35.335938 135.601562 36.1875 134.203125 37.714844 C 132.707031 39.289062 131.53125 41.65625 130.683594 44.808594 C 129.835938 47.964844 129.78125 50.3125 130.515625 51.847656 C 131.234375 53.445312 132.691406 54.242188 134.902344 54.242188 C 136.5 54.277344 138.0625 53.757812 139.328125 52.78125 C 140.578125 51.621094 141.5625 50.203125 142.207031 48.625 Z M 142.207031 48.625 "/>
<path style=" stroke:none;fill-rule:nonzero;fill:rgb(0%,29.411765%,52.156863%);fill-opacity:1;" d="M 85.066406 61.863281 L 90.5 61.863281 L 97.339844 36.332031 L 106.480469 61.863281 L 112.453125 61.863281 L 121.5 27.742188 L 116.003906 27.746094 L 109.273438 53.261719 L 100.222656 27.738281 L 94.203125 27.738281 Z M 85.066406 61.863281 "/>
<path style=" stroke:none;fill-rule:nonzero;fill:rgb(0%,29.411765%,52.156863%);fill-opacity:1;" d="M 74.871094 33.480469 L 65.859375 48.273438 L 75.992188 48.273438 Z M 73.234375 27.738281 L 79.621094 27.738281 L 83.027344 61.851562 L 76.964844 61.851562 L 76.273438 53.019531 L 63.003906 53.019531 L 57.660156 61.851562 L 51.757812 61.851562 Z M 73.234375 27.738281 "/>
<path style=" stroke:none;fill-rule:nonzero;fill:rgb(0%,29.411765%,52.156863%);fill-opacity:1;" d="M 38.269531 32.484375 L 35.828125 41.617188 L 43.867188 41.617188 C 46 41.617188 47.664062 41.230469 48.84375 40.460938 C 50.085938 39.601562 50.960938 38.300781 51.285156 36.824219 C 51.675781 35.371094 51.476562 34.308594 50.6875 33.5625 C 49.898438 32.8125 48.511719 32.484375 46.519531 32.484375 Z M 34.585938 46.261719 L 31.753906 56.824219 L 40.667969 56.824219 C 42.859375 56.824219 44.621094 56.378906 45.945312 55.496094 C 47.316406 54.539062 48.285156 53.105469 48.660156 51.472656 C 49.164062 49.671875 48.953125 48.359375 48.078125 47.523438 C 47.203125 46.691406 45.570312 46.261719 43.175781 46.261719 Z M 34.015625 27.738281 L 48.742188 27.738281 C 52.304688 27.738281 54.773438 28.453125 56.167969 29.890625 C 57.566406 31.328125 57.851562 33.496094 57.078125 36.375 C 56.667969 37.976562 55.875 39.457031 54.773438 40.6875 C 53.664062 41.929688 52.261719 42.878906 50.691406 43.441406 C 52.5 44.003906 53.707031 44.980469 54.359375 46.382812 C 55.015625 47.785156 55.019531 49.585938 54.441406 51.757812 C 53.667969 54.773438 51.820312 57.394531 49.246094 59.136719 C 46.644531 60.945312 43.5 61.851562 39.8125 61.851562 L 24.875 61.851562 Z M 34.015625 27.738281 "/>
<path style=" stroke:none;fill-rule:evenodd;fill:rgb(0%,63.529412%,69.411765%);fill-opacity:1;" d="M 348.007812 1.109375 L 377.152344 40.992188 L 340.660156 40.992188 C 338.824219 40.992188 337.734375 39.484375 338.222656 37.667969 Z M 348.007812 1.109375 "/>
<path style=" stroke:none;fill-rule:evenodd;fill:rgb(0%,29.411765%,52.156863%);fill-opacity:1;" d="M 325.066406 86.890625 L 375.574219 46.902344 L 339.117188 46.902344 C 337.15625 47.003906 335.472656 48.324219 334.902344 50.207031 Z M 325.066406 86.890625 "/>
<path style=" stroke:none;fill-rule:evenodd;fill:rgb(0%,63.529412%,69.411765%);fill-opacity:1;" d="M 332.308594 37.628906 C 332.308594 37.628906 331.171875 40.992188 328.097656 40.992188 L 311.515625 40.992188 L 336.75 21.054688 Z M 332.308594 37.628906 "/>
<path style=" stroke:none;fill-rule:evenodd;fill:rgb(0%,29.411765%,52.156863%);fill-opacity:1;" d="M 328.953125 50.246094 C 328.953125 50.246094 329.566406 46.902344 326.539062 46.902344 L 309.957031 46.902344 L 324.53125 66.839844 Z M 328.953125 50.246094 "/>
</g>
</svg>
